<?xml version="1.0" encoding="UTF-8" standalone="no"?>
<!-- Created with Inkscape (http://www.inkscape.org/) -->

<svg
   width="129.94019mm"
   height="31.459888mm"
   viewBox="0 0 129.94019 31.459889"
   version="1.1"
   id="svg714"
   inkscape:export-filename="monocleDV_logo.svg"
   inkscape:export-xdpi="96"
   inkscape:export-ydpi="96"
   xmlns:inkscape="http://www.inkscape.org/namespaces/inkscape"
   xmlns:sodipodi="http://sodipodi.sourceforge.net/DTD/sodipodi-0.dtd"
   xmlns="http://www.w3.org/2000/svg"
   xmlns:svg="http://www.w3.org/2000/svg">
  <sodipodi:namedview
     id="namedview716"
     pagecolor="#ffffff"
     bordercolor="#999999"
     borderopacity="1"
     inkscape:showpageshadow="0"
     inkscape:pageopacity="0"
     inkscape:pagecheckerboard="0"
     inkscape:deskcolor="#d1d1d1"
     inkscape:document-units="mm"
     showgrid="false"
     showguides="false" />
  <defs
     id="defs711">
    <rect
       x="116.66667"
       y="526.66669"
       width="730"
       height="293.33334"
       id="rect495-91-1-3-0-3" />
    <rect
       x="-206.66667"
       y="626.66669"
       width="366.66666"
       height="376.66666"
       id="rect1162-4-4-3-0-60" />
    <rect
       x="-370"
       y="1003.3333"
       width="1343.3333"
       height="423.33334"
       id="rect1904-9-3-7-0-4" />
  </defs>
  <g
     inkscape:label="Layer 1"
     inkscape:groupmode="layer"
     id="layer1"
     transform="translate(-157.07772,-215.81681)">
    <g
       id="g10549-9-09"
       transform="translate(96.880184,-22.590262)">
      <g
         id="g3815-4-0-5-2"
         inkscape:label="MONOCLEDV-2"
         transform="matrix(1.0341858,0,0,1.0341858,14.451028,59.735987)">
        <g
           aria-label="onocle"
           transform="matrix(0.29645535,0,0,0.29386234,-18.220408,19.881387)"
           id="text493-5-6-2-7-4"
           style="font-weight:bold;font-size:96px;line-height:0.9;font-family:'Apple Braille';-inkscape-font-specification:'Apple Braille Bold';text-align:center;letter-spacing:3.85913px;direction:rtl;white-space:pre;shape-inside:url(#rect495-91-1-3-0-3);fill:#676bb8;stroke:#ffffff;stroke-width:1.57087;paint-order:fill markers stroke">
          <path
             d="m 330.24475,568.03789 q 0,-7.54688 2.90625,-13.45313 2.90625,-5.90625 8.34375,-9.14062 5.48438,-3.23438 12.70313,-3.23438 10.26562,0 16.73437,6.28125 6.51563,6.28125 7.26563,17.0625 l 0.0937,3.46875 q 0,11.67188 -6.51563,18.75 -6.51562,7.03125 -17.48437,7.03125 -10.96875,0 -17.53125,-7.03125 -6.51563,-7.03125 -6.51563,-19.125 z m 13.54688,0.98437 q 0,7.21875 2.71875,11.0625 2.71875,3.79688 7.78125,3.79688 4.92187,0 7.6875,-3.75 2.76562,-3.79688 2.76562,-12.09375 0,-7.07813 -2.76562,-10.96875 -2.76563,-3.89063 -7.78125,-3.89063 -4.96875,0 -7.6875,3.89063 -2.71875,3.84375 -2.71875,11.95312 z"
             style="font-family:Roboto;-inkscape-font-specification:'Roboto Bold';fill:#ffffff"
             id="path3180" />
          <path
             d="m 402.96326,543.14726 0.42187,5.85938 q 5.4375,-6.79688 14.57813,-6.79688 8.0625,0 12,4.73438 3.9375,4.73437 4.03125,14.15625 v 32.76562 h -13.54688 v -32.4375 q 0,-4.3125 -1.875,-6.23437 -1.875,-1.96875 -6.23437,-1.96875 -5.71875,0 -8.57813,4.875 v 35.76562 h -13.54687 v -50.71875 z"
             style="font-family:Roboto;-inkscape-font-specification:'Roboto Bold';fill:#ffffff"
             id="path3182" />
          <path
             d="m 446.00989,568.03789 q 0,-7.54688 2.90625,-13.45313 2.90625,-5.90625 8.34375,-9.14062 5.48438,-3.23438 12.70313,-3.23438 10.26562,0 16.73437,6.28125 6.51563,6.28125 7.26563,17.0625 l 0.0937,3.46875 q 0,11.67188 -6.51563,18.75 -6.51562,7.03125 -17.48437,7.03125 -10.96875,0 -17.53125,-7.03125 -6.51563,-7.03125 -6.51563,-19.125 z m 13.54688,0.98437 q 0,7.21875 2.71875,11.0625 2.71875,3.79688 7.78125,3.79688 4.92187,0 7.6875,-3.75 2.76562,-3.79688 2.76562,-12.09375 0,-7.07813 -2.76562,-10.96875 -2.76563,-3.89063 -7.78125,-3.89063 -4.96875,0 -7.6875,3.89063 -2.71875,3.84375 -2.71875,11.95312 z"
             style="font-family:Roboto;-inkscape-font-specification:'Roboto Bold';fill:#ffffff"
             id="path3184" />
          <path
             d="m 527.3534,583.88164 q 3.75,0 6.09375,-2.0625 2.34375,-2.0625 2.4375,-5.48438 h 12.70312 q -0.0469,5.15625 -2.8125,9.46875 -2.76562,4.26563 -7.59375,6.65625 -4.78125,2.34375 -10.59375,2.34375 -10.875,0 -17.15625,-6.89062 -6.28125,-6.9375 -6.28125,-19.125 v -0.89063 q 0,-11.71875 6.23438,-18.70312 6.23437,-6.98438 17.10937,-6.98438 9.51563,0 15.23438,5.4375 5.76562,5.39063 5.85937,14.39063 h -12.70312 q -0.0937,-3.9375 -2.4375,-6.375 -2.34375,-2.48438 -6.1875,-2.48438 -4.73438,0 -7.17188,3.46875 -2.39062,3.42188 -2.39062,11.15625 v 1.40625 q 0,7.82813 2.39062,11.25 2.39063,3.42188 7.26563,3.42188 z"
             style="font-family:Roboto;-inkscape-font-specification:'Roboto Bold';fill:#ffffff"
             id="path3186" />
          <path
             d="M 574.47815,593.86601 H 560.8844 v -72 h 13.59375 z"
             style="font-family:Roboto;-inkscape-font-specification:'Roboto Bold';fill:#ffffff"
             id="path3188" />
          <path
             d="m 612.83728,594.80351 q -11.15625,0 -18.1875,-6.84375 -6.98437,-6.84375 -6.98437,-18.23437 v -1.3125 q 0,-7.64063 2.95312,-13.64063 2.95313,-6.04687 8.34375,-9.28125 5.4375,-3.28125 12.375,-3.28125 10.40625,0 16.35938,6.5625 6,6.5625 6,18.60938 v 5.53125 h -32.29688 q 0.65625,4.96875 3.9375,7.96875 3.32813,3 8.39063,3 7.82812,0 12.23437,-5.67188 l 6.65625,7.45313 q -3.04687,4.3125 -8.25,6.75 -5.20312,2.39062 -11.53125,2.39062 z m -1.54687,-41.625 q -4.03125,0 -6.5625,2.71875 -2.48438,2.71875 -3.1875,7.78125 h 18.84375 v -1.07812 q -0.0937,-4.5 -2.4375,-6.9375 -2.34375,-2.48438 -6.65625,-2.48438 z"
             style="font-family:Roboto;-inkscape-font-specification:'Roboto Bold';fill:#ffffff"
             id="path3190" />
        </g>
        <g
           aria-label="M"
           transform="matrix(0.22159772,0,0,0.22159772,65.33912,34.362568)"
           id="text1160-9-1-3-2-9"
           style="font-weight:bold;font-size:192px;line-height:0.9;font-family:'Apple Braille';-inkscape-font-specification:'Apple Braille Bold';text-align:center;direction:rtl;white-space:pre;shape-inside:url(#rect1162-4-4-3-0-60);fill:#ffffff;stroke-width:7.55906;paint-order:fill markers stroke">
          <path
             d="m -58.489258,624.56601 35.0625,99 34.875,-99 h 36.9375 v 136.5 h -28.21875 v -37.3125 l 2.8125,-64.40625 -36.84375,101.71875 h -19.3125 l -36.75,-101.625 2.8125,64.3125 v 37.3125 h -28.125 v -136.5 z"
             style="font-family:Roboto;-inkscape-font-specification:'Roboto Bold'"
             id="path3193" />
        </g>
      </g>
      <g
         id="g3524-3-2"
         transform="matrix(1.0366413,0,0,1.0366413,-4.6419404,26.779571)"
         inkscape:label="MONOCLESM-1">
        <g
           aria-label="STATUS·MONITOR"
           transform="matrix(0.20567329,0,0,0.20805264,80.544949,21.219642)"
           id="text1902-77-8-6-8"
           style="font-size:31.1403px;line-height:0.9;font-family:'Apple Braille';-inkscape-font-specification:'Apple Braille';text-align:center;letter-spacing:11.063px;direction:rtl;white-space:pre;shape-inside:url(#rect1904-9-3-7-0-4);fill:#ffffff;stroke-width:7.55906;paint-order:fill markers stroke">
          <path
             d="m 85.438029,1017.5366 q 0.685086,2.8961 1.930699,4.1105 1.245612,1.2145 3.238591,1.2145 1.992979,0 2.896048,-0.9342 0.903068,-0.9653 0.903068,-2.3667 0,-1.4013 -1.12105,-2.46 -1.089911,-1.0588 -2.678066,-1.8373 -1.557015,-0.7785 -3.145171,-1.6505 -1.557015,-0.8719 -2.678065,-2.2732 -1.089911,-1.4324 -1.089911,-3.3009 0,-2.8649 2.179821,-4.3285 2.179821,-1.4636 5.511833,-1.4636 3.363153,0 6.259201,1.3702 0.311403,0.6228 0.311403,2.6469 0,1.993 -0.155702,3.1141 l -1.961839,-0.062 q -0.217982,-4.9202 -4.889027,-4.9202 -1.245612,0 -2.05526,0.7474 -0.809648,0.7162 -0.809648,1.8684 0,1.1522 0.778508,2.0241 0.809648,0.872 1.992979,1.4948 1.214472,0.5916 2.584645,1.4013 1.401314,0.7785 2.584645,1.5881 1.214472,0.7785 1.992979,2.0864 0.809648,1.3079 0.809648,2.8961 0,2.8026 -2.11754,4.7022 -2.0864,1.8995 -5.387272,1.8995 -3.300872,0 -7.349111,-1.4636 -0.155702,-0.4982 -0.467105,-2.4289 -0.280262,-1.9307 -0.404824,-3.2386 z"
             style="font-weight:bold;font-family:Lusitana;-inkscape-font-specification:'Lusitana Bold'"
             id="path3196" />
          <path
             d="m 125.30578,1004.7068 h -1.71272 v 17.314 q 0,0.5917 0.46711,0.872 0.4671,0.2491 1.93069,0.2491 l 0.40483,1.6816 q -3.73684,-0.093 -5.41841,-0.093 -1.68158,0 -4.07938,0.093 l -0.37369,-1.6816 q 1.71272,-0.031 2.2421,-0.3114 0.52939,-0.2803 0.52939,-0.8097 v -17.314 h -1.02763 q -2.83377,0 -3.58113,0.7162 -0.65395,0.5294 -1.12106,3.1452 l -1.43245,0.031 q -0.3114,-1.5259 -0.3114,-3.1764 0,-1.6504 0.37368,-3.0517 1.21447,0.2491 2.74035,0.2491 h 13.51489 q 2.0864,0 3.14517,-0.2491 0.18684,2.1487 0.18684,3.4254 0,1.2456 -0.34254,2.8961 l -1.4636,-0.218 q -0.34254,-2.4912 -1.12105,-3.0518 -0.99649,-0.7162 -3.54999,-0.7162 z"
             style="font-weight:bold;font-family:Lusitana;-inkscape-font-specification:'Lusitana Bold'"
             id="path3198" />
          <path
             d="m 145.55511,1024.73 -3.79911,0.1246 -0.21798,-1.7127 q 1.08991,-0.093 1.77499,-0.5294 0.68509,-0.436 0.99649,-0.9342 0.31141,-0.5294 0.68509,-1.557 l 6.50832,-17.5009 h 2.70921 l 7.34911,17.9991 q 0.56052,1.4013 1.15219,1.993 0.62281,0.5605 1.74386,0.5605 l 0.34254,1.6505 q -1.43245,-0.093 -4.70218,-0.093 -3.26974,0 -4.73333,0.093 l -0.28026,-1.6505 q 1.65043,0 2.05526,-0.218 0.40482,-0.2491 0.40482,-0.5605 0,-0.3114 -0.18684,-0.7162 l -2.0864,-4.6711 h -6.75745 l -1.30789,3.7369 q -0.12456,0.3425 -0.12456,0.6539 0,0.654 0.77851,1.1834 0.7785,0.5293 2.3978,0.5605 l 0.3114,1.7127 z m 6.04122,-16.4732 -2.3978,6.7575 h 5.20043 z"
             style="font-weight:bold;font-family:Lusitana;-inkscape-font-specification:'Lusitana Bold'"
             id="path3200" />
          <path
             d="m 190.03165,1004.7068 h -1.71272 v 17.314 q 0,0.5917 0.46711,0.872 0.4671,0.2491 1.9307,0.2491 l 0.40482,1.6816 q -3.73683,-0.093 -5.41841,-0.093 -1.68158,0 -4.07938,0.093 l -0.37368,-1.6816 q 1.71271,-0.031 2.2421,-0.3114 0.52938,-0.2803 0.52938,-0.8097 v -17.314 h -1.02763 q -2.83376,0 -3.58113,0.7162 -0.65395,0.5294 -1.12105,3.1452 l -1.43246,0.031 q -0.3114,-1.5259 -0.3114,-3.1764 0,-1.6504 0.37368,-3.0517 1.21448,0.2491 2.74035,0.2491 h 13.51489 q 2.0864,0 3.14517,-0.2491 0.18684,2.1487 0.18684,3.4254 0,1.2456 -0.34254,2.8961 l -1.46359,-0.218 q -0.34255,-2.4912 -1.12105,-3.0518 -0.99649,-0.7162 -3.55,-0.7162 z"
             style="font-weight:bold;font-family:Lusitana;-inkscape-font-specification:'Lusitana Bold'"
             id="path3202" />
          <path
             d="m 221.61606,1025.1037 q -5.01358,0 -7.50481,-1.9618 -2.49122,-1.9619 -2.49122,-6.2904 v -11.5219 q 0,-0.5605 -0.43597,-0.8408 -0.40482,-0.2802 -1.65043,-0.2802 l -0.40483,-1.6816 q 3.73684,0.093 5.10701,0.093 1.40132,0 3.76798,-0.093 l 0.37368,1.6816 q -1.49473,0.031 -1.99298,0.3114 -0.4671,0.2802 -0.4671,0.8096 v 11.1483 q 0,6.3837 5.9478,6.3837 2.2421,0 3.33201,-1.557 1.12105,-1.557 1.12105,-4.3908 v -11.5842 q 0,-0.5605 -0.43596,-0.8408 -0.40483,-0.2802 -1.65044,-0.2802 l -0.40482,-1.6816 q 3.73683,0.093 4.6399,0.093 0.90307,0 3.26973,-0.093 l 0.37369,1.6816 q -1.49474,0.031 -1.99298,0.3114 -0.46711,0.2802 -0.46711,0.8096 v 11.304 q 0,8.4701 -8.0342,8.4701 z"
             style="font-weight:bold;font-family:Lusitana;-inkscape-font-specification:'Lusitana Bold'"
             id="path3204" />
          <path
             d="m 247.37724,1017.5366 q 0.68508,2.8961 1.9307,4.1105 1.24561,1.2145 3.23859,1.2145 1.99298,0 2.89605,-0.9342 0.90306,-0.9653 0.90306,-2.3667 0,-1.4013 -1.12105,-2.46 -1.08991,-1.0588 -2.67806,-1.8373 -1.55702,-0.7785 -3.14517,-1.6505 -1.55702,-0.8719 -2.67807,-2.2732 -1.08991,-1.4324 -1.08991,-3.3009 0,-2.8649 2.17982,-4.3285 2.17982,-1.4636 5.51184,-1.4636 3.36315,0 6.2592,1.3702 0.3114,0.6228 0.3114,2.6469 0,1.993 -0.1557,3.1141 l -1.96184,-0.062 q -0.21798,-4.9202 -4.88903,-4.9202 -1.24561,0 -2.05526,0.7474 -0.80965,0.7162 -0.80965,1.8684 0,1.1522 0.77851,2.0241 0.80965,0.872 1.99298,1.4948 1.21447,0.5916 2.58465,1.4013 1.40131,0.7785 2.58464,1.5881 1.21447,0.7785 1.99298,2.0864 0.80965,1.3079 0.80965,2.8961 0,2.8026 -2.11754,4.7022 -2.0864,1.8995 -5.38728,1.8995 -3.30087,0 -7.34911,-1.4636 -0.1557,-0.4982 -0.4671,-2.4289 -0.28026,-1.9307 -0.40482,-3.2386 z"
             style="font-weight:bold;font-family:Lusitana;-inkscape-font-specification:'Lusitana Bold'"
             id="path3206" />
          <path
             d="m 276.595,1020.0279 q -0.93421,0 -1.46359,-0.5917 -0.52939,-0.5917 -0.52939,-1.4636 0,-0.9031 0.62281,-1.4947 0.6228,-0.5917 1.43245,-0.5917 0.84079,0 1.43246,0.5294 0.59166,0.5294 0.59166,1.4324 0,0.9031 -0.56052,1.557 -0.56053,0.6229 -1.52588,0.6229 z"
             style="font-weight:bold;font-family:Lusitana;-inkscape-font-specification:'Lusitana Bold'"
             id="path3208" />
          <path
             d="m 314.2518,1002.4959 3.08289,0.1245 q 1.15219,0 3.51885,-0.093 l 0.37369,1.6816 q -1.49474,0.031 -1.99298,0.3114 -0.46711,0.2802 -0.46711,0.8096 v 16.6912 q 0,0.5606 0.40483,0.8408 0.43596,0.2803 1.68157,0.2803 l 0.40483,1.6816 q -3.73684,-0.093 -5.10701,-0.093 -1.37018,0 -3.76798,0.093 l -0.37368,-1.6816 q 1.49473,-0.031 1.96184,-0.3114 0.49824,-0.2803 0.49824,-0.8097 v -12.9543 q -0.90307,1.8995 -3.48771,7.3179 -2.58465,5.3873 -3.92368,8.2211 l -0.80965,0.3737 -8.22104,-16.5667 v 13.6083 q 0,0.5606 0.40483,0.8408 0.43596,0.2803 1.68157,0.2803 l 0.40483,1.6816 q -3.73684,-0.093 -4.60877,-0.093 -0.87193,0 -3.26973,0.093 l -0.37368,-1.6816 q 2.67806,-0.062 2.67806,-1.1211 V 1005.33 q 0,-1.121 -2.30438,-1.121 l -0.40482,-1.6816 q 3.73683,0.093 5.04473,0.093 1.30789,0 2.11754,-0.093 0.59166,1.7439 2.14868,4.8267 1.58815,3.0518 2.02412,4.0794 0.71622,1.8996 3.73683,7.2869 1.24561,-2.8027 2.17982,-5.0136 0.96535,-2.2421 1.65044,-3.768 0.71623,-1.5259 1.33903,-2.9583 1.775,-3.8926 1.775,-4.4842 z"
             style="font-weight:bold;font-family:Lusitana;-inkscape-font-specification:'Lusitana Bold'"
             id="path3210" />
          <path
             d="m 346.24104,1025.1037 q -5.13815,0 -8.43903,-3.0517 -3.30087,-3.0829 -3.30087,-7.9719 0,-4.9202 3.51886,-8.3768 3.51885,-3.4566 8.62586,-3.4566 5.13815,0 8.37674,3.1141 3.23859,3.0829 3.23859,8.0342 0,4.9513 -3.45657,8.3456 -3.42543,3.3631 -8.56358,3.3631 z m -3.55,-3.7368 q 1.80614,1.4947 4.57763,1.4947 2.77148,0 4.45306,-2.3666 1.71272,-2.3667 1.71272,-5.9167 0,-4.3908 -1.96184,-7.2868 -1.96184,-2.8961 -5.66754,-2.8961 -2.92719,0 -4.70218,2.429 -1.775,2.4289 -1.775,5.9789 0,5.8232 3.36315,8.5636 z"
             style="font-weight:bold;font-family:Lusitana;-inkscape-font-specification:'Lusitana Bold'"
             id="path3212" />
          <path
             d="m 393.02191,1024.8546 q -0.6228,-0.1246 -1.37017,-0.1246 -0.71623,0 -1.18333,0.093 l -13.17235,-16.7224 v 13.9197 q 0,0.5606 0.40482,0.8408 0.43597,0.2803 1.68158,0.2803 l 0.40482,1.6816 q -3.73683,-0.093 -4.60876,-0.093 -0.87193,0 -3.26973,0.093 l -0.37369,-1.6816 q 2.67807,-0.062 2.67807,-1.1211 v -16.6912 q 0,-1.121 -2.30438,-1.121 l -0.40483,-1.6816 q 3.73684,0.093 5.04473,0.093 1.30789,0 2.11754,-0.093 0,0.3737 0.43597,1.0276 0.43596,0.6228 0.71622,1.0899 0.31141,0.436 0.77851,1.09 0.49825,0.6228 0.84079,1.0899 0.37368,0.4671 0.93421,1.1522 2.05526,2.5846 2.49122,3.1451 0.46711,0.5605 2.52237,3.2698 2.0864,2.678 2.5535,3.2385 l -0.0311,-12.3004 q 0,-0.5605 -0.43596,-0.8408 -0.40483,-0.2802 -1.65044,-0.2802 l -0.40482,-1.6816 q 3.73683,0.093 4.60876,0.093 0.90307,0 3.26973,-0.093 l 0.37369,1.6816 q -2.67807,0.062 -2.67807,1.121 z"
             style="font-weight:bold;font-family:Lusitana;-inkscape-font-specification:'Lusitana Bold'"
             id="path3214" />
          <path
             d="m 415.0774,1005.3296 v 16.6912 q 0,0.5606 0.40482,0.8408 0.43597,0.2803 1.68158,0.2803 l 0.40482,1.6816 q -3.73683,-0.093 -5.10701,-0.093 -1.37017,0 -3.76797,0.093 l -0.37369,-1.6816 q 1.49474,-0.031 1.96184,-0.3114 0.49825,-0.2803 0.49825,-0.8097 v -16.6912 q 0,-0.5605 -0.43597,-0.8408 -0.40482,-0.2802 -1.65043,-0.2802 l -0.40483,-1.6816 q 3.73684,0.093 5.10701,0.093 1.40132,0 3.76798,-0.093 l 0.37368,1.6816 q -1.49473,0.031 -1.99298,0.3114 -0.4671,0.2802 -0.4671,0.8096 z"
             style="font-weight:bold;font-family:Lusitana;-inkscape-font-specification:'Lusitana Bold'"
             id="path3216" />
          <path
             d="m 443.73465,1004.7068 h -1.71271 v 17.314 q 0,0.5917 0.4671,0.872 0.46711,0.2491 1.9307,0.2491 l 0.40482,1.6816 q -3.73683,-0.093 -5.41841,-0.093 -1.68157,0 -4.07938,0.093 l -0.37368,-1.6816 q 1.71272,-0.031 2.2421,-0.3114 0.52939,-0.2803 0.52939,-0.8097 v -17.314 h -1.02763 q -2.83377,0 -3.58114,0.7162 -0.65394,0.5294 -1.12105,3.1452 l -1.43245,0.031 q -0.31141,-1.5259 -0.31141,-3.1764 0,-1.6504 0.37369,-3.0517 1.21447,0.2491 2.74034,0.2491 h 13.51489 q 2.0864,0 3.14518,-0.2491 0.18684,2.1487 0.18684,3.4254 0,1.2456 -0.34255,2.8961 l -1.46359,-0.218 q -0.34254,-2.4912 -1.12105,-3.0518 -0.99649,-0.7162 -3.55,-0.7162 z"
             style="font-weight:bold;font-family:Lusitana;-inkscape-font-specification:'Lusitana Bold'"
             id="path3218" />
          <path
             d="m 474.88311,1025.1037 q -5.13815,0 -8.43902,-3.0517 -3.30087,-3.0829 -3.30087,-7.9719 0,-4.9202 3.51885,-8.3768 3.51885,-3.4566 8.62586,-3.4566 5.13815,0 8.37674,3.1141 3.2386,3.0829 3.2386,8.0342 0,4.9513 -3.45658,8.3456 -3.42543,3.3631 -8.56358,3.3631 z m -3.54999,-3.7368 q 1.80613,1.4947 4.57762,1.4947 2.77149,0 4.45306,-2.3666 1.71272,-2.3667 1.71272,-5.9167 0,-4.3908 -1.96184,-7.2868 -1.96184,-2.8961 -5.66753,-2.8961 -2.92719,0 -4.70219,2.429 -1.775,2.4289 -1.775,5.9789 0,5.8232 3.36316,8.5636 z"
             style="font-weight:bold;font-family:Lusitana;-inkscape-font-specification:'Lusitana Bold'"
             id="path3220" />
          <path
             d="m 521.94423,1024.8235 -3.08289,-0.093 q -0.99649,0 -3.54999,0.062 -0.28026,-0.3737 -0.71623,-0.9965 -0.40482,-0.6539 -1.02763,-1.557 -0.59166,-0.9342 -2.21096,-3.3631 -1.58815,-2.429 -2.42894,-3.55 0,-0.031 0.0311,-0.031 h -2.02412 v 6.7263 q 0,0.5606 0.40482,0.8408 0.43597,0.2803 1.68158,0.2803 l 0.40482,1.6816 q -3.73683,-0.093 -5.10701,-0.093 -1.37017,0 -3.76797,0.093 l -0.37369,-1.6816 q 1.49474,-0.031 1.96184,-0.3114 0.49825,-0.2803 0.49825,-0.8097 V 1005.33 q 0,-0.5605 -0.43597,-0.8408 -0.40482,-0.2802 -1.65043,-0.2802 l -0.40483,-1.6816 q 3.73684,0.093 4.35964,0.093 l 4.63991,-0.1245 q 3.67456,0 5.97894,1.5258 2.33552,1.4948 2.33552,4.5777 0,4.1416 -4.35964,5.8855 1.30789,1.7127 1.89956,2.5846 h -0.0311 q 3.42543,4.7022 3.73683,4.9825 1.12105,1.0587 2.64693,1.1522 z m -15.00962,-20.1167 v 8.875 q 0.52938,0.031 1.30789,0.031 2.46008,0 3.7057,-1.339 1.27675,-1.339 1.27675,-3.4877 0,-2.1798 -1.27675,-3.2386 -1.27676,-1.0588 -3.14517,-1.0588 -1.86842,0 -1.86842,0.218 z"
             style="font-weight:bold;font-family:Lusitana;-inkscape-font-specification:'Lusitana Bold'"
             id="path3222" />
        </g>
      </g>
    </g>
  </g>
</svg>
