<svg xmlns:svg="http://www.w3.org/2000/svg" xmlns="http://www.w3.org/2000/svg" width="344" height="250" viewBox="170 60 344.09448819 250" version="1.1">
    <path d="m 441.99646,183.82507 c -1.4489,0.38235 -6.38966,0.18557 -4.43115,2.83081 1.53048,1.59802 3.14693,3.10877 4.8175,4.56849 8.54201,7.46399 18.47935,13.55098 25.30884,22.66296 4.12428,4.83929 7.64611,10.94535 8.20312,17.12036 1.43989,6.1701 1.76816,12.47254 0.95581,18.87817 -1.60482,14.83436 -22.22105,34.94921 -34.70946,43.69995 0.37228,0.0294 0.35705,0.0369 -0.009,0.0238 0.0107,0.0137 0.0247,0.0242 0.0348,0.0384 0.0388,0.0544 0.0598,0.11784 0.0879,0.17761 5.71509,-1.76787 11.19461,-4.20834 16.36413,-7.14294 13.09607,-6.50974 24.84054,-25.54356 27.94739,-39.62219 7.04311,-29.56262 -14.5772,-54.74279 -44.5697,-63.23547 z m -1.2323,108.56873 c -0.006,0.002 -0.0107,0.0121 -0.0165,0.0146 0.0821,0.036 0.16201,0.0831 0.2417,0.13366 -0.0767,-0.10462 -0.15256,-0.16937 -0.22522,-0.14831 z m 1.28357,1.25794 c -0.0196,0.0137 -0.0409,0.0285 -0.0605,0.0421 0.0369,0.0601 0.0729,0.12074 0.11171,0.17944 0.003,-9e-4 0.007,-8.7e-4 0.009,-0.002 0.0131,-7.5e-4 -0.0244,-0.11156 -0.0604,-0.21972 z" style="color:#000;clip-rule:nonzero;display:inline;overflow:visible;visibility:visible;opacity:1;isolation:auto;mix-blend-mode:normal;color-interpolation:sRGB;color-interpolation-filters:linearRGB;solid-color:#000;solid-opacity:1;fill:#fef4ee;fill-opacity:1;fill-rule:nonzero;stroke:none;stroke-width:.82517987;stroke-linecap:butt;stroke-linejoin:miter;stroke-miterlimit:4;stroke-dasharray:none;stroke-dashoffset:0;stroke-opacity:1;color-rendering:auto;image-rendering:auto;shape-rendering:auto;text-rendering:auto;enable-background:accumulate"/>
    <path d="m 431.79383,156.13403 c -1.42716,0.34706 -2.64724,1.37063 -2.62024,2.44263 8.34184,8.04574 16.01823,20.94465 2.56347,30.41381 0.14263,0.004 0.44765,0.0107 0.49622,0.0129 0.37582,0.0165 0.7502,0.062 1.12609,0.0769 0.41635,0.0165 1.29922,0.15542 1.71571,0.1648 0.21894,0.005 -0.095,-0.0919 0,0 15.18849,-9.05239 13.10184,-27.73345 -3.28125,-33.11097 z m -3.36732,34.35059 c -0.003,7.7e-4 -0.007,7.8e-4 -0.009,0.002 h 0.0128 c -9.4e-4,-6.2e-4 -0.002,-7.9e-4 -0.004,-0.002 z" style="color:#000;clip-rule:nonzero;display:inline;overflow:visible;visibility:visible;opacity:1;isolation:auto;mix-blend-mode:normal;color-interpolation:sRGB;color-interpolation-filters:linearRGB;solid-color:#000;solid-opacity:1;fill:#fef4ee;fill-opacity:1;fill-rule:nonzero;stroke:none;stroke-width:.70459276;stroke-linecap:butt;stroke-linejoin:miter;stroke-miterlimit:4;stroke-dasharray:none;stroke-dashoffset:0;stroke-opacity:1;color-rendering:auto;image-rendering:auto;shape-rendering:auto;text-rendering:auto;enable-background:accumulate"/>
    <path d="M 411.18363,123.76321 Z" style="fill:#fef4ee;fill-rule:evenodd;stroke:none;stroke-width:.95099574px;stroke-linecap:butt;stroke-linejoin:miter;stroke-opacity:1;fill-opacity:1"/>
    <path d="m 434.92463,90.168661 c -1.82378,1.52395 -1.73589,4.516242 -0.52284,6.355833 8.64248,10.577356 8.30249,27.889506 -0.52902,38.606626 -3.45564,3.79939 -7.52194,7.41997 -12.43981,8.75249 -6.83579,1.37051 -13.36865,-1.86048 -19.21194,-5.05643 -1.11985,-0.21808 -4.28879,-3.4235 -4.06203,-1.01384 2.51823,4.69545 7.65769,6.86705 12.38101,8.29371 6.65444,1.88895 14.34553,2.63686 20.60721,-1.293 5.24215,-2.46818 9.71391,-6.79208 12.39341,-12.1598 6.81103,-14.14669 3.22608,-32.97626 -8.61599,-42.485589 z" style="color:#000;clip-rule:nonzero;display:inline;overflow:visible;visibility:visible;opacity:1;isolation:auto;mix-blend-mode:normal;color-interpolation:sRGB;color-interpolation-filters:linearRGB;solid-color:#000;solid-opacity:1;fill:#fef4ee;fill-opacity:1;fill-rule:nonzero;stroke:none;stroke-width:.88227648;stroke-linecap:butt;stroke-linejoin:miter;stroke-miterlimit:4;stroke-dasharray:none;stroke-dashoffset:0;stroke-opacity:1;color-rendering:auto;image-rendering:auto;shape-rendering:auto;text-rendering:auto;enable-background:accumulate"/>
    <path d="m 430.25525,85.974065 c -0.0422,0.0117 0.37838,-0.272892 0,2e-5 -4.67712,12.482394 -0.52856,35.040395 -8.93922,48.081465 -7.84657,14.27863 -18.40284,14.51467 -29.07017,18.64613 0,0 -5.70369,1.81804 -8.99869,3.3925 0.14474,0.0997 1.52451,-2.0125 0,0 v 0 l 3.68482,0.0926 c 12.3282,-4.42858 25.80315,-6.2242 36.2514,-17.0601 10.99817,-12.51875 9.48939,-34.84085 7.57871,-52.651097 -1.2481,0.280817 -0.38018,-0.536248 -0.50685,-0.501488 z" style="color:#000;clip-rule:nonzero;display:inline;overflow:visible;visibility:visible;opacity:1;isolation:auto;mix-blend-mode:normal;color-interpolation:sRGB;color-interpolation-filters:linearRGB;solid-color:#000;solid-opacity:1;fill:#fef4ee;fill-opacity:1;fill-rule:nonzero;stroke:none;stroke-width:.95357567;stroke-linecap:butt;stroke-linejoin:miter;stroke-miterlimit:4;stroke-dasharray:none;stroke-dashoffset:0;stroke-opacity:1;color-rendering:auto;image-rendering:auto;shape-rendering:auto;text-rendering:auto;enable-background:accumulate"/>
    <path d="m 425.15779,84.069503 c -10.57591,-0.155578 -21.86823,6.081111 -26.77606,19.993117 -3.88487,18.01367 -10.66592,39.45233 -23.8092,49.4526 l 6.63731,-1.50082 c 10.37789,-11.43666 17.09847,-29.23355 22.98285,-48.7651 3.75365,-12.803648 17.09916,-14.452121 25.43241,-18.67287 -1.46094,-0.315825 -2.95646,-0.484702 -4.46731,-0.506927 z" style="color:#000;clip-rule:nonzero;display:inline;overflow:visible;visibility:visible;opacity:1;isolation:auto;mix-blend-mode:normal;color-interpolation:sRGB;color-interpolation-filters:linearRGB;solid-color:#000;solid-opacity:1;fill:#fef4ee;fill-opacity:1;fill-rule:nonzero;stroke:none;stroke-width:.98123378;stroke-linecap:butt;stroke-linejoin:miter;stroke-miterlimit:4;stroke-dasharray:none;stroke-dashoffset:0;stroke-opacity:1;color-rendering:auto;image-rendering:auto;shape-rendering:auto;text-rendering:auto;enable-background:accumulate"/>
    <path d="m 397.00195,155.14893 -0.002,0.002 c -1.06869,0.78383 -2.08417,1.73699 -2.98646,2.88758 -4.60062,5.55068 -4.73071,15.6463 -2.87658,23.64807 3.79298,16.57415 12.17209,31.37243 23.06213,38.53088 0.73135,0.47811 1.46961,0.91025 2.21008,1.32751 -0.0306,-0.12931 -0.0616,-0.2584 -0.0696,-0.4193 -0.005,-0.0904 -0.002,-0.11832 -0.007,-0.18677 -3.9e-4,-0.007 -0.002,-0.0113 -0.004,-0.0165 -9.4e-4,-0.0235 -0.0128,-0.22684 -0.0128,-0.22705 0.003,-4.9e-4 0.004,3.6e-4 0.006,0 0.003,-0.13422 0.023,-0.20893 0.12085,-0.2179 0.0759,-0.007 0.42913,0.0332 0.61524,0.0604 0.005,-0.028 0.008,-0.0582 0.008,-0.0788 0.002,-0.0254 -0.003,-0.0468 -0.004,-0.0696 -7e-4,-0.014 -0.0149,-0.044 -0.002,-0.044 9.4e-4,1e-5 0.004,0 0.006,0 -9.4e-4,-0.047 6e-5,-0.0868 0.002,-0.12818 -0.0215,-0.0664 -0.0293,-0.13768 -0.0293,-0.21424 -0.50141,0.0391 -0.52353,0.0128 0,-0.0751 6.5e-4,-0.0123 -9.3e-4,-0.0239 0.002,-0.0367 -0.0101,-0.0585 -0.0188,-0.11852 -0.0128,-0.18493 0.007,-0.0543 0.0113,-0.10864 0.0165,-0.16296 -0.0284,-0.009 -0.0541,-0.0249 -0.0824,-0.0311 0.0308,-0.0396 0.0652,-0.0766 0.0971,-0.11535 0.005,-0.0502 0.0114,-0.1 0.0165,-0.15015 0.0265,0.0123 0.0554,0.0211 0.0824,0.0348 0.003,-0.005 0.009,-0.009 0.011,-0.0128 -5.9e-4,-0.0342 -0.007,-0.0712 -0.002,-0.10254 0.008,-0.0375 0.029,-0.0663 0.0384,-0.10254 9.3e-4,-0.005 -0.002,-0.0147 0,-0.0202 0.007,-0.0123 0.0133,-0.0229 0.0202,-0.0348 0.021,-0.0682 0.0461,-0.13367 0.0751,-0.19775 -0.0531,-0.0179 -0.10608,-0.0351 -0.1593,-0.0531 -0.007,0.0119 -0.0139,0.0399 -0.0202,0.0567 0.005,-0.0326 0.004,-0.0663 0.009,-0.0989 0.008,-0.0611 0.0199,-0.17939 0.0732,-0.16663 0.0475,0.0105 0.0954,0.0236 0.14283,0.0348 -0.003,-0.15945 0.0269,-0.26035 0.0403,-0.39001 -3.45138,-3.42471 -6.11261,-9.84873 -7.53969,-12.96449 -6.96012,-13.32881 -16.27531,-32.08274 -12.84362,-50.08055 z m 20.59204,63.25561 c -0.0416,0.0713 -0.0854,0.14001 -0.12817,0.21057 v 0.002 c 0.0701,0.0159 0.13835,0.0366 0.20874,0.0531 0.0278,-0.0333 0.0557,-0.0684 0.0824,-0.10255 -0.0544,-0.0531 -0.10857,-0.10951 -0.16297,-0.16296 z m -0.12817,0.21241 c -0.0152,-0.005 -0.0319,-0.011 -0.0476,-0.011 -0.0101,0.0477 -0.0159,0.0805 -0.0238,0.12451 0.0221,-0.0385 0.0484,-0.0757 0.0714,-0.11352 z m -0.0476,-0.011 c 0.003,-0.0217 0.007,-0.0343 0.011,-0.0568 -0.01,0.0172 -0.0257,0.0309 -0.0367,0.0476 0.009,0.004 0.0169,0.006 0.0256,0.009 z m -0.0751,-0.0202 c 4.8e-4,0.0273 0.008,0.0613 0.009,0.0897 0.0131,-0.0247 0.0239,-0.0546 0.0384,-0.0788 -0.0147,-0.005 -0.0308,-0.009 -0.0457,-0.009 z m -0.22523,0.23438 c -0.0188,0.14085 -0.0313,0.28295 -0.044,0.42481 -0.0101,-0.005 -0.0188,-0.004 -0.0275,-0.009 -0.0846,-0.0447 0.0111,-0.27411 0.0714,-0.41565 z m 0.25818,0.0183 c -0.003,0.0207 -0.0113,0.0425 -0.0146,0.0623 0.003,0.0443 0.004,0.0818 0.011,0.12817 0.0431,-0.0494 0.0832,-0.0989 0.12634,-0.14831 -0.0405,-0.014 -0.0803,-0.0285 -0.12085,-0.0421 z m 4.27917,4.23157 c -0.0678,0.0757 -0.13475,0.15253 -0.20324,0.22705 -2.1e-4,9.3e-4 2.4e-4,0.006 0,0.007 0.0223,-0.014 0.14505,-0.13333 0.18677,-0.17029 0.0152,-0.0377 0.0202,-0.0597 0.0165,-0.0641 z m -0.23437,0.19775 c -0.0101,0.0105 -0.0174,0.0182 -0.0275,0.0275 0.008,0.0123 0.0126,0.0234 0.0202,0.0348 l 0.004,0.004 v 0.002 c 0.003,0.007 0.01,0.007 0.0146,0.0129 2e-4,-0.0123 -3.3e-4,-0.0181 0.002,-0.0275 v -0.004 l 0.002,-0.002 c 2.1e-4,-0.009 -1e-4,-0.0126 0.002,-0.0202 -0.007,-0.0123 -0.007,-0.0127 -0.0165,-0.0275 z m 0.0275,0.0494 c -0.003,0.0123 -0.002,0.024 -0.006,0.0367 0.005,0.007 0.01,0.009 0.0146,0.011 0.007,-9.4e-4 0.0143,1.8e-4 0.0202,-0.004 -0.0114,-0.017 -0.0178,-0.0251 -0.0292,-0.044 z m 43.36854,0.0805 c 0.008,-0.0259 -0.0593,0.002 -0.0952,0.009 0.005,0.005 0.009,0.006 0.0165,0.011 0.0135,0.0123 0.0166,0.0241 0.0256,0.0348 0.003,-0.005 0.0489,-0.0433 0.0531,-0.0494 z m -42.36512,0.41198 v 0.002 c 4e-5,0.009 0.002,0.0112 0.002,0.0183 0.0211,0.005 0.0485,0.0111 0.0732,0.0165 -0.0135,-0.0123 -0.0368,-0.0227 -0.0513,-0.033 -0.008,-7.5e-4 -0.0165,-0.002 -0.0238,-0.004 z m -0.0292,0.3424 c -0.007,0.0505 -0.009,0.10071 -0.0202,0.15015 -0.003,0.0123 -0.0131,0.0362 -0.0165,0.0513 -1.9e-4,9.3e-4 1.9e-4,0.006 0,0.008 0.003,9.3e-4 0.009,0.006 0.0129,0.007 0.008,-0.0195 0.0167,-0.0371 0.0238,-0.0567 7.4e-4,-0.0531 -7.2e-4,-0.10621 0,-0.1593 z m 1.71754,0.48706 -0.002,0.002 c 8e-5,3.2e-4 0.0181,0.0283 0.0183,0.0292 l 0.004,-0.004 c -9.3e-4,-9.4e-4 -0.0203,-0.0284 -0.0202,-0.0275 z m 1.00891,0.009 c -0.002,0.0345 10e-6,0.0668 0,0.10071 0.005,-0.0123 0.007,-0.0271 0.0128,-0.0403 4e-5,-0.0123 0.003,-0.0258 0.002,-0.0384 -0.003,-0.009 -0.009,-0.0144 -0.0129,-0.0219 z m -0.79286,0.27466 c -0.005,0.0179 -0.007,0.034 -0.0146,0.0513 0.0152,0.0233 0.0387,0.0651 0.0494,0.0824 0.0338,0.0105 0.0687,0.0205 0.10254,0.0311 -0.0417,-0.0513 -0.0958,-0.10977 -0.13734,-0.16479 z" style="color:#000;clip-rule:nonzero;display:inline;overflow:visible;visibility:visible;opacity:1;isolation:auto;mix-blend-mode:normal;color-interpolation:sRGB;color-interpolation-filters:linearRGB;solid-color:#000;solid-opacity:1;fill:#fef4ee;fill-opacity:1;fill-rule:nonzero;stroke:none;stroke-width:.12476937;stroke-linecap:butt;stroke-linejoin:miter;stroke-miterlimit:4;stroke-dasharray:none;stroke-dashoffset:0;stroke-opacity:1;color-rendering:auto;image-rendering:auto;shape-rendering:auto;text-rendering:auto;enable-background:accumulate"/>
    <path d="m 437.36866,200.29684 c -10.42786,0 -18.39726,2.94317 -23.90819,8.8295 -7.39191,6.94725 -11.08786,17.35099 -11.08786,31.21127 0,13.58647 3.69595,23.99025 11.08786,31.21127 5.51093,5.88633 13.48033,8.8295 23.90819,8.8295 10.42786,0 18.39726,-2.94317 23.90819,-8.8295 7.35891,-7.22102 11.03835,-17.6248 11.03835,-31.21127 0,-13.86028 -3.67944,-24.26402 -11.03835,-31.21127 -5.51093,-5.88633 -13.48033,-8.8295 -23.90819,-8.8295 z m -209.1843,2.31004 v 52.9257 c 0,3.66184 -0.34649,6.26277 -1.03949,7.80281 -1.15498,2.60093 -3.53095,3.9014 -7.12791,3.9014 -3.62996,0 -6.00593,-1.18067 -7.12791,-3.54206 -1.08898,-2.3956 -1.69948,-6.51945 -1.83147,-12.37158 v -1.74536 h -14.40431 v 1.74536 c 0,8.89796 1.61698,15.93076 4.85093,21.09842 3.23397,5.13344 9.58638,7.70015 19.05726,7.70015 9.47088,0 16.02129,-3.18274 19.65125,-9.54819 2.14497,-3.76452 3.21744,-8.86372 3.21744,-15.29763 v -52.66902 z m 30.39261,0 v 46.50891 c 0,8.04237 1.20448,14.30516 3.61345,18.78835 4.52094,8.21349 13.10082,12.32024 25.73968,12.32024 12.63884,0 21.20223,-4.10675 25.69015,-12.32024 2.40897,-4.48319 3.61347,-10.74598 3.61347,-18.78835 V 202.60688 H 301.7404 v 46.50891 c 0,5.20188 -0.59398,9.00062 -1.78196,11.39621 -1.84799,4.24363 -5.85743,6.36547 -12.02834,6.36547 -6.20393,0 -10.22988,-2.12184 -12.07785,-6.36547 -1.18799,-2.39559 -1.78198,-6.19433 -1.78198,-11.39621 v -46.50891 z m 73.01156,0 v 75.6668 h 14.20631 v -53.74705 l 29.79862,53.74705 h 15.2458 v -75.6668 h -14.20631 v 52.82302 l -29.05613,-52.82302 z m 105.78013,11.08821 c 6.03892,0 10.82386,2.32717 14.35481,6.98148 3.56396,4.62009 5.34594,11.17376 5.34594,19.66104 0,8.5215 -1.78198,15.09229 -5.34594,19.71238 -3.53095,4.62009 -8.31589,6.93014 -14.35481,6.93014 -6.03893,0 -10.85686,-2.31005 -14.45382,-6.93014 -3.59694,-4.62009 -5.39543,-11.19088 -5.39543,-19.71238 0,-2.47465 0.17002,-4.76525 0.47335,-6.91088 -3.9e-4,-0.0771 -10e-4,-0.17312 0,-0.1733 0.003,-3.3e-4 0.003,3.4e-4 0.007,0 0.007,-0.082 0.0208,-0.13824 0.0493,-0.17967 0.76456,-5.08027 2.37196,-9.24458 4.86639,-12.44857 3.59694,-4.62009 8.41489,-6.93013 14.45381,-6.93013 z" style="font-style:normal;font-weight:400;line-height:0%;font-family:sans-serif;letter-spacing:0;word-spacing:0;fill:#fef4ee;fill-opacity:1;stroke:none;stroke-width:1.72061002px;stroke-linecap:butt;stroke-linejoin:miter;stroke-opacity:1"/>
    <path d="m 427.03279,85.944503 c -0.89426,22.467897 -14.65788,42.945917 -32.72569,51.288467 18.11386,-9.91945 24.8624,-34.29933 31.86526,-50.988277 l 0.85016,-0.29661 z" style="opacity:.95;fill:#fef4ee;fill-opacity:1;stroke:none;stroke-width:10.96656227;stroke-miterlimit:10;stroke-dasharray:none;stroke-opacity:1"/>
</svg>
